<?xml version="1.0" ?><svg id="Layer_1" style="enable-background:new 0 0 32 32;" version="1.1" viewBox="0 0 32 32" xml:space="preserve" xmlns="http://www.w3.org/2000/svg" xmlns:xlink="http://www.w3.org/1999/xlink"><style type="text/css">
	.st0{fill:#FACEBD;}
	.st1{fill:#FFFFFF;stroke:#2C1A0A;stroke-width:0.9526;stroke-miterlimit:10;}
	.st2{fill:none;stroke:#2C1A0A;stroke-width:0.953;stroke-miterlimit:10;}
	.st3{fill:#2C1A0A;}
</style><g><ellipse class="st0" cx="16" cy="15.59" id="Ellipse_139" rx="14.48" ry="14.67"/><g id="Group_321" transform="translate(734.231 769.442)"><path class="st1" d="M-711.13-750.53h-16.74c-0.76,0-1.37,0.61-1.37,1.37v2.88c0,0.25,0.2,0.46,0.46,0.46l0,0    c0.76,0,1.37,0.61,1.37,1.37s-0.61,1.37-1.37,1.37c-0.25,0-0.46,0.2-0.46,0.46l0,0v2.88c0,0.76,0.62,1.37,1.37,1.37h19.31    c0.76,0,1.37-0.61,1.37-1.37v-2.88c0-0.25-0.2-0.46-0.46-0.46l0,0c-0.76,0-1.37-0.61-1.37-1.37s0.61-1.37,1.37-1.37    c0.25,0,0.46-0.2,0.46-0.46l0,0v-2.88c0-0.76-0.61-1.37-1.37-1.37H-711.13L-711.13-750.53z" id="Path_330"/><path class="st2" d="M-709.83-750.52l1.29-1.29c0.54-0.54,0.54-1.4,0-1.94l-2.04-2.04c-0.18-0.18-0.47-0.18-0.65,0    l0,0c-0.54,0.54-1.41,0.54-1.94,0c-0.54-0.54-0.54-1.41,0-1.94l0,0c0.18-0.18,0.18-0.47,0-0.65l0,0l-2.03-2.04    c-0.54-0.54-1.4-0.54-1.94,0l-0.9,0.9l-0.91,0.91l-1.42,1.42l-6.65,6.66" id="Path_331"/></g><g id="Group_322" transform="translate(780.218 843.532)"><path class="st3" d="M-766.33-819.9l4.07,4c0.18,0.18,0.47,0.17,0.65-0.01c0.17-0.18,0.17-0.47,0-0.64l0,0    l-4.07-4c-0.18-0.17-0.47-0.17-0.65,0.02C-766.51-820.36-766.5-820.08-766.33-819.9L-766.33-819.9z" id="Path_285_1_"/><path class="st3" d="M-765.64-815.95l4-4.07c0.18-0.18,0.18-0.47,0-0.65s-0.47-0.18-0.65,0l0,0l0,0l-4,4.07    c-0.18,0.18-0.17,0.47,0.01,0.65C-766.11-815.77-765.82-815.77-765.64-815.95L-765.64-815.95z" id="Path_285-2_1_"/></g></g></svg>