<?xml version="1.0" ?><!DOCTYPE svg  PUBLIC '-//W3C//DTD SVG 1.1//EN'  'http://www.w3.org/Graphics/SVG/1.1/DTD/svg11.dtd'><svg enable-background="new 0 0 128 128" height="128px" id="Layer_1" version="1.1" viewBox="0 0 128 128" width="128px" xml:space="preserve" xmlns="http://www.w3.org/2000/svg" xmlns:xlink="http://www.w3.org/1999/xlink"><g><g><path d="M112.799,106.1c-24.781,0-49.561,0-74.342,0c-7.752,0-15.504,0-23.256,0c0.5,0.5,1,1,1.5,1.5c0-20.116,0-40.231,0-60.348    c-0.5,0.5-1,1-1.5,1.5c24.781,0,49.561,0,74.342,0c7.752,0,15.504,0,23.256,0c-0.5-0.5-1-1-1.5-1.5c0,20.116,0,40.231,0,60.348    c0,1.935,3,1.935,3,0c0-20.116,0-40.231,0-60.348c0-0.817-0.682-1.5-1.5-1.5c-24.781,0-49.561,0-74.342,0    c-7.752,0-15.504,0-23.256,0c-0.818,0-1.5,0.683-1.5,1.5c0,20.116,0,40.231,0,60.348c0,0.817,0.682,1.5,1.5,1.5    c24.781,0,49.561,0,74.342,0c7.752,0,15.504,0,23.256,0C114.733,109.1,114.733,106.1,112.799,106.1z"/></g></g><g><g><path d="M112.799,62.269c-24.781,0-49.561,0-74.342,0c-7.752,0-15.504,0-23.256,0c0.5,0.5,1,1,1.5,1.5c0-5.506,0-11.011,0-16.517    c-0.5,0.5-1,1-1.5,1.5c24.781,0,49.561,0,74.342,0c7.752,0,15.504,0,23.256,0c-0.5-0.5-1-1-1.5-1.5c0,5.506,0,11.011,0,16.517    c0,1.935,3,1.935,3,0c0-5.506,0-11.011,0-16.517c0-0.817-0.682-1.5-1.5-1.5c-24.781,0-49.561,0-74.342,0    c-7.752,0-15.504,0-23.256,0c-0.818,0-1.5,0.683-1.5,1.5c0,5.506,0,11.011,0,16.517c0,0.817,0.682,1.5,1.5,1.5    c24.781,0,49.561,0,74.342,0c7.752,0,15.504,0,23.256,0C114.733,65.269,114.733,62.269,112.799,62.269z"/></g></g><g><g><path d="M44.8,62.269c-5.377,0-10.754,0-16.132,0c0.432,0.752,0.863,1.505,1.295,2.257c2.667-5.505,5.333-11.011,8-16.517    c-0.432,0.248-0.864,0.495-1.295,0.743c5.377,0,10.754,0,16.132,0c-0.432-0.752-0.863-1.505-1.295-2.257    c-2.667,5.505-5.333,11.011-8,16.517c-0.839,1.732,1.748,3.255,2.591,1.514c2.667-5.505,5.333-11.011,8-16.517    c0.484-1-0.091-2.257-1.295-2.257c-5.377,0-10.754,0-16.132,0c-0.496,0-1.07,0.278-1.295,0.743    c-2.667,5.505-5.333,11.011-8,16.517c-0.484,1,0.091,2.257,1.295,2.257c5.377,0,10.754,0,16.132,0    C46.734,65.269,46.734,62.269,44.8,62.269z"/></g></g><g><g><path d="M60.932,62.269c-5.377,0-10.754,0-16.132,0c0.432,0.752,0.863,1.505,1.295,2.257c2.667-5.505,5.333-11.011,8-16.517    c-0.432,0.248-0.864,0.495-1.295,0.743c5.377,0,10.754,0,16.132,0C68.5,48,68.068,47.247,67.636,46.495    c-2.667,5.505-5.333,11.011-8,16.517c-0.839,1.732,1.748,3.255,2.591,1.514c2.667-5.505,5.333-11.011,8-16.517    c0.484-1-0.091-2.257-1.295-2.257c-5.377,0-10.754,0-16.132,0c-0.496,0-1.07,0.278-1.295,0.743    c-2.667,5.505-5.333,11.011-8,16.517c-0.484,1,0.091,2.257,1.295,2.257c5.377,0,10.754,0,16.132,0    C62.866,65.269,62.866,62.269,60.932,62.269z"/></g></g><g><g><path d="M77.105,62.269c-5.377,0-10.754,0-16.132,0c0.432,0.752,0.863,1.505,1.295,2.257c2.667-5.505,5.333-11.011,8-16.517    c-0.432,0.248-0.864,0.495-1.295,0.743c5.377,0,10.754,0,16.132,0c-0.432-0.752-0.863-1.505-1.295-2.257    c-2.667,5.505-5.333,11.011-8,16.517c-0.839,1.732,1.748,3.255,2.591,1.514c2.667-5.505,5.333-11.011,8-16.517    c0.484-1-0.091-2.257-1.295-2.257c-5.377,0-10.754,0-16.132,0c-0.496,0-1.07,0.278-1.295,0.743    c-2.667,5.505-5.333,11.011-8,16.517c-0.484,1,0.091,2.257,1.295,2.257c5.377,0,10.754,0,16.132,0    C79.04,65.269,79.04,62.269,77.105,62.269z"/></g></g><g><g><g><path d="M111.299,31.535c-24.537,3.462-49.075,6.925-73.612,10.387c-7.676,1.084-15.352,2.167-23.028,3.25     c0.615,0.349,1.23,0.698,1.845,1.048c-0.769-5.452-1.539-10.903-2.308-16.354c-0.349,0.615-0.698,1.229-1.047,1.845     c24.538-3.462,49.075-6.925,73.612-10.387c7.676-1.084,15.352-2.167,23.028-3.25c-0.615-0.349-1.23-0.698-1.845-1.048     c0.769,5.452,1.538,10.903,2.308,16.354c0.269,1.909,3.16,1.094,2.893-0.797c-0.769-5.452-1.538-10.903-2.308-16.354     c-0.124-0.881-1.123-1.15-1.845-1.048c-24.538,3.462-49.075,6.925-73.612,10.387c-7.676,1.084-15.352,2.167-23.028,3.25     c-0.881,0.124-1.149,1.123-1.047,1.845c0.769,5.452,1.539,10.903,2.308,16.354c0.124,0.881,1.123,1.15,1.845,1.048     c24.537-3.462,49.075-6.925,73.612-10.387c7.676-1.084,15.352-2.167,23.028-3.25C114.005,34.158,113.19,31.269,111.299,31.535z"/></g></g><g><g><path d="M68.884,40.525c5.415-0.765,10.83-1.528,16.245-2.293c0.935-0.132,1.397-1.469,0.896-2.203     c-3.455-5.072-6.909-10.145-10.363-15.217c-0.42-0.617-0.977-0.791-1.694-0.689c-5.415,0.764-10.83,1.528-16.245,2.292     c-0.935,0.132-1.397,1.469-0.896,2.203c3.455,5.073,6.909,10.146,10.364,15.218c1.082,1.589,3.683,0.09,2.591-1.514     c-3.455-5.073-6.909-10.146-10.364-15.218c-0.299,0.734-0.598,1.469-0.896,2.203c5.415-0.764,10.83-1.528,16.245-2.292     c-0.565-0.229-1.129-0.459-1.694-0.689c3.455,5.072,6.909,10.145,10.363,15.217c0.299-0.734,0.598-1.469,0.896-2.203     c-5.415,0.765-10.83,1.528-16.245,2.293C66.177,37.902,66.992,40.793,68.884,40.525z"/></g></g><g><g><path d="M52.639,42.817c5.415-0.764,10.83-1.528,16.245-2.292c0.935-0.132,1.397-1.469,0.896-2.203     c-3.455-5.073-6.909-10.146-10.364-15.218c-0.42-0.617-0.977-0.791-1.694-0.689c-5.415,0.765-10.83,1.528-16.245,2.293     c-0.935,0.132-1.397,1.468-0.896,2.203c3.455,5.072,6.909,10.145,10.363,15.217c1.082,1.589,3.683,0.09,2.591-1.514     c-3.455-5.072-6.909-10.145-10.363-15.217c-0.299,0.734-0.598,1.469-0.896,2.203c5.415-0.765,10.83-1.528,16.245-2.293     c-0.565-0.229-1.129-0.459-1.694-0.689c3.455,5.073,6.909,10.146,10.364,15.218c0.299-0.734,0.598-1.469,0.896-2.203     c-5.415,0.764-10.83,1.528-16.245,2.292C49.932,40.194,50.747,43.084,52.639,42.817z"/></g></g><g><g><path d="M36.352,45.115c5.415-0.764,10.83-1.528,16.245-2.292c0.935-0.132,1.397-1.469,0.896-2.203     c-3.455-5.072-6.909-10.145-10.364-15.217c-0.42-0.617-0.977-0.791-1.694-0.689c-5.415,0.764-10.83,1.527-16.245,2.291     c-0.935,0.132-1.397,1.469-0.896,2.203c3.455,5.073,6.909,10.146,10.364,15.218c1.082,1.589,3.683,0.09,2.591-1.514     c-3.455-5.073-6.909-10.146-10.364-15.218c-0.299,0.734-0.598,1.469-0.896,2.203c5.415-0.764,10.83-1.527,16.245-2.291     c-0.565-0.229-1.129-0.459-1.694-0.689c3.455,5.072,6.909,10.145,10.364,15.217c0.299-0.734,0.598-1.469,0.896-2.203     c-5.415,0.764-10.83,1.528-16.245,2.292C33.646,42.492,34.46,45.382,36.352,45.115z"/></g></g></g><g><g><path d="M105,98.667c-24.858,0-49.717,0-74.575,0c-2.697,0-5.395,0-8.092,0c0.5,0.5,1,1,1.5,1.5c0-9.463,0-18.926,0-28.389    c-0.5,0.5-1,1-1.5,1.5c24.858,0,49.717,0,74.575,0c2.697,0,5.394,0,8.091,0c-0.5-0.5-1-1-1.5-1.5c0,9.463,0,18.926,0,28.389    c0,1.935,3,1.935,3,0c0-9.463,0-18.926,0-28.389c0-0.817-0.682-1.5-1.5-1.5c-24.858,0-49.717,0-74.575,0c-2.697,0-5.395,0-8.092,0    c-0.818,0-1.5,0.683-1.5,1.5c0,9.463,0,18.926,0,28.389c0,0.817,0.682,1.5,1.5,1.5c24.858,0,49.717,0,74.575,0    c2.697,0,5.394,0,8.091,0C106.934,101.667,106.934,98.667,105,98.667z"/></g></g><g><g><path d="M31,83.269c17.4,0,34.8,0,52.201,0c1.935,0,1.935-3,0-3c-17.4,0-34.8,0-52.201,0C29.065,80.269,29.065,83.269,31,83.269    L31,83.269z"/></g></g><g><g><path d="M31,92.833c11.556,0,23.111,0,34.667,0c1.935,0,1.935-3,0-3c-11.556,0-23.111,0-34.667,0    C29.065,89.833,29.065,92.833,31,92.833L31,92.833z"/></g></g></svg>